<svg width="128" height="128" viewBox="0 0 128 128" fill="none" xmlns="http://www.w3.org/2000/svg">
  <rect width="128" height="128" rx="24" fill="#636a60"/>
  <svg x="18" y="12" width="92" height="104" viewBox="0 0 27.66 34.18" fill="none">
    <path d="M19.1 27.24v1c-.9 3.2-3.22 3.94-7.02 3.94-4.09 0-7.49-2.75-8.08-6.32 1.36-.62 2.67-1.32 3.92-2.09 1.06-.65 2.13-1.39 3.4-1.55.67-.09 1.34-.01 1.99.17 1.3.36 2.43 1.14 3.34 2.14l2.46 2.71z" fill="#ffffff" fill-opacity=".4"/>
    <path d="M0 31.68c2 0 4.02-1.26 4.5-3l-.54-1.3C.83 29.22.5 29.68 0 31.68z" fill="#ffffff" fill-opacity=".4"/>
    <path d="M20.67 12.79c-.28.13-.51.24-.71.34.7.38 1.34.85 1.93 1.35v-2.31c-.44.26-.87.46-1.22.62zM4.83 17.23v-2.51c-.32-.35-.68-.7-1.04-1.06-.58-.58-1.2-1.19-1.75-1.87v12.29c0 .5.04 1 .11 1.49.72 4.91 4.94 8.61 9.81 8.61 3.99 0 7.53-2.42 9.09-6.06-.79-.45-1.57-1.01-2.36-1.62-1 2.88-3.68 4.84-6.73 4.84s-5.5-1.84-6.58-4.48c-.09-.21-.17-.42-.23-.64-.11-.34-.19-.7-.24-1.07zM11.96 1.8c-1.2 0-2.36.22-3.42.62.1.08.2.15.31.23.8.59 1.66 1.22 2.39 2.03.24-.03.48-.04.72-.04.6 0 1.19.08 1.76.23.03-.11.05-.22.08-.34l.11-.42.27-.34c.42-.53.92-.96 1.49-1.25A9.9 9.9 0 0 0 11.96 1.8z" fill="#ffffff"/>
    <path d="M5.15 26.22c.06.22.14.43.23.64l-.1.18z" fill="#ffffff"/>
    <path d="M24.66 26.21c-1.69 0-3.89-1.84-6.01-3.63-2.68-2.25-5.46-4.58-8.43-4.58-.94 0-1.83.24-2.68.71.07-.27.15-.55.23-.83.3-1.07.62-2.18.51-3.36l-.02-.25-.14-.21c-.62-.94-1.43-1.75-2.22-2.53-1.29-1.28-2.51-2.49-2.79-4.16-.08-2.22.22-4.03.87-5.25.82 1.27 2 2.15 3.08 2.94 1.19.88 2.32 1.71 2.89 2.97.56 1.75 1.65 2.8 2.93 2.8.5 0 .99-.16 1.48-.47 1.74-.91 1.97-2.62 2.16-4 .04-.3.08-.6.14-.89.31-.31.68-.47 1.13-.47 1.5 0 3.33 1.64 3.49 3.14.12.87-.29 1.19-1.88 1.93-1.46.68-3.46 1.61-3.32 4.15l.04.77.76.16c2.27.47 3.88 2.29 5.6 4.22 1.49 1.68 3.02 3.41 5.09 4.34-1.31 2.5-2.49 2.5-2.91 2.5z" fill="#ffffff"/>
    <path d="M25.1.19c-2.66-.56-5.56.15-7.22 2.08 2.11.14 3.66.83 4.65 2.09.96-.64 1.91-.87 2.57-.12.48.54-.23 1.68-1.45 3.16 1.1 3.02-1.56 4.34-3.74 5.59.59.33.6-.11 1.19.25 2.95-2.98 4.93-4.64 6-7s.63-5.49-2-6.05z" fill="#ffffff" fill-opacity=".4"/>
  </svg>
</svg>
